<svg xmlns="http://www.w3.org/2000/svg" viewBox="0 0 24 24"><path d="M12 2a10 10 0 1 0 10 10A10 10 0 0 0 12 2zm6.93 6H15.6a15.6 15.6 0 0 0-1.36-4.03A8.03 8.03 0 0 1 18.93 8zM12 4.04A13.9 13.9 0 0 1 13.5 8h-3A13.9 13.9 0 0 1 12 4.04zM4.26 14a7.9 7.9 0 0 1 0-4h3.38a17.1 17.1 0 0 0 0 4zm.81 2h3.33a15.6 15.6 0 0 0 1.36 4.03A8.03 8.03 0 0 1 5.07 16zm3.33-8H5.07a8.03 8.03 0 0 1 4.69-4.03A15.6 15.6 0 0 0 8.4 8zM12 19.96A13.9 13.9 0 0 1 10.5 16h3a13.9 13.9 0 0 1-1.5 3.96zM13.83 14h-3.66a14.7 14.7 0 0 1 0-4h3.66a14.7 14.7 0 0 1 0 4zm.5 5.03A15.6 15.6 0 0 0 15.69 16h3.24a8.03 8.03 0 0 1-4.6 3.03zM16.36 14a17.1 17.1 0 0 0 0-4h3.38a7.9 7.9 0 0 1 0 4z"/></svg>
