<svg xmlns="http://www.w3.org/2000/svg" viewBox="0 0 24 24"><path d="M17.472 14.382c-.297-.149-1.758-.867-2.03-.967-.273-.099-.471-.148-.67.15-.197.297-.767.966-.94 1.164-.173.199-.347.223-.644.075-.297-.15-1.255-.463-2.39-1.475-.883-.788-1.48-1.761-1.653-2.059-.173-.297-.018-.458.13-.606.134-.133.298-.347.446-.52.149-.174.198-.298.298-.497.099-.198.05-.371-.025-.52-.075-.149-.669-1.612-.916-2.207-.242-.579-.487-.5-.669-.51-.173-.008-.371-.01-.57-.01-.198 0-.52.074-.792.372-.272.297-1.04 1.016-1.04 2.479 0 1.462 1.065 2.875 1.213 3.074.149.198 2.096 3.2 5.077 4.487.709.306 1.262.489 1.694.626.712.226 1.36.194 1.872.118.571-.085 1.758-.719 2.006-1.413.248-.694.248-1.289.173-1.413-.074-.124-.272-.198-.57-.347z"/><path d="M12.004 2.003c-5.514 0-9.997 4.483-9.997 9.997 0 1.762.464 3.484 1.345 4.997L2 22l5.116-1.341a9.958 9.958 0 0 0 4.888 1.281h.004c5.514 0 9.997-4.483 9.997-9.997 0-2.67-1.04-5.18-2.929-7.069a9.933 9.933 0 0 0-7.068-2.929zm5.845 15.85a8.29 8.29 0 0 1-5.847 2.421h-.003a8.278 8.278 0 0 1-4.223-1.157l-.303-.18-3.037.796.811-2.96-.198-.304a8.264 8.264 0 0 1-1.267-4.416c0-4.571 3.72-8.291 8.293-8.291a8.24 8.24 0 0 1 5.864 2.432 8.239 8.239 0 0 1 2.428 5.86c0 4.572-3.72 8.293-8.286 8.293z"/></svg>
